<?xml version="1.0" encoding="UTF-8" standalone="no"?>
<!DOCTYPE svg PUBLIC "-//W3C//DTD SVG 1.1//EN" "http://www.w3.org/Graphics/SVG/1.1/DTD/svg11.dtd">
<svg width="100%" height="100%" viewBox="0 0 32 32" version="1.1" xmlns="http://www.w3.org/2000/svg" xmlns:xlink="http://www.w3.org/1999/xlink" xml:space="preserve" xmlns:serif="http://www.serif.com/" style="fill-rule:evenodd;clip-rule:evenodd;stroke-linejoin:round;stroke-miterlimit:2;">
    <circle id="BaseShape" cx="16" cy="16" r="16" style="fill:none;"/>
    <clipPath id="_clip1">
        <circle id="BaseShape1" serif:id="BaseShape" cx="16" cy="16" r="16"/>
    </clipPath>
    <g clip-path="url(#_clip1)">
        <path id="BaseFill3" d="M32,0L0,0L0,15L32,15L32,0ZM2.323,13C3.697,6.713 9.303,2 16,2C22.697,2 28.303,6.713 29.677,13L2.323,13Z" style="fill:#f4f0ed;"/>
        <rect id="BaseFill2" x="-0" y="0" width="15" height="15" style="fill:#f4f0ed;"/>
        <rect id="BaseFill1" x="-0" y="0" width="32" height="32" style="fill:#f4f0ed;"/>
    </g>
    <path id="DownMarker" d="M15,15L11,15L2,6L2,4L9,4L9,0L15,0L15,15Z" style="fill:#df7b3d;"/>
    <path id="UpMarker" d="M17,0L21,0L30,9L30,11L23,11L23,15L17,15L17,0Z" style="fill:#df7b3d;"/>
    <path id="BranchMarker" d="M11,23L11,30L9,30L-0,21L-0,17L32,17L32,21L23,30L21,30L21,23L11,23Z" style="fill:#df7b3d;"/>
</svg>
